<?xml version="1.0" encoding="utf-8"?>
<!-- Generator: Adobe Illustrator 16.0.3, SVG Export Plug-In . SVG Version: 6.00 Build 0)  -->
<!DOCTYPE svg PUBLIC "-//W3C//DTD SVG 1.1//EN" "http://www.w3.org/Graphics/SVG/1.1/DTD/svg11.dtd">
<svg version="1.1" id="Layer_1" xmlns="http://www.w3.org/2000/svg" xmlns:xlink="http://www.w3.org/1999/xlink" x="0px" y="0px"
	 width="80px" height="40px" viewBox="0 0 80 40" enable-background="new 0 0 80 40" xml:space="preserve">
<g id="g5">
	<g id="g7">
		<path id="path9" fill="#1A1A1A" stroke="#1A1A1A" stroke-width="0.9203" stroke-miterlimit="10" d="M13.661,22.358V7.344
			c0-0.497-0.257-0.828-0.737-0.828c-0.463,0-0.72,0.331-0.72,0.828v15.619c0,0.529,0.256,0.77,0.77,0.77h8.343
			c0.497,0,0.827-0.206,0.827-0.687s-0.322-0.688-0.827-0.688H13.661z"/>
		<path id="path11" fill="#1A1A1A" stroke="#1A1A1A" stroke-width="0.9203" stroke-miterlimit="10" d="M26.382,7.957h8.26
			c0.496,0,0.828-0.208,0.828-0.688c0-0.479-0.323-0.687-0.828-0.687h-8.947c-0.513,0-0.77,0.241-0.77,0.77v15.603
			c0,0.529,0.257,0.769,0.77,0.769h8.947c0.496,0,0.828-0.206,0.828-0.686c0-0.481-0.323-0.688-0.828-0.688h-8.26V7.957
			L26.382,7.957z"/>
		<path id="path13" fill="#1A1A1A" stroke="#1A1A1A" stroke-width="0.9203" stroke-miterlimit="10" d="M45.883,8.627l6.307,14.551
			c0.142,0.34,0.381,0.62,0.704,0.62c0.381,0,1.01-0.396,0.687-1.117L46.793,7.204c-0.141-0.29-0.339-0.687-0.893-0.687
			c-0.548,0-0.755,0.397-0.896,0.687l-6.786,15.477c-0.323,0.722,0.306,1.117,0.687,1.117c0.323,0,0.562-0.271,0.704-0.62
			L45.883,8.627z"/>
		<path id="path15" fill="#1A1A1A" stroke="#1A1A1A" stroke-width="0.9203" stroke-miterlimit="10" d="M43.656,17.301
			c0,0.48,0.323,0.688,0.82,0.688h2.847c0.496,0,0.827-0.208,0.827-0.688s-0.322-0.687-0.827-0.687h-2.847
			C43.979,16.615,43.656,16.821,43.656,17.301"/>
		<path id="path17" fill="#1A1A1A" stroke="#1A1A1A" stroke-width="0.9203" stroke-miterlimit="10" d="M58.431,7.957h3.98
			c1.151,0,2.161,0.016,3.014,0.497c0.96,0.53,1.54,1.564,1.54,2.739c0,1.184-0.58,2.21-1.54,2.74
			c-0.853,0.463-1.87,0.497-3.014,0.497h-1.795c-0.497,0-0.828,0.207-0.828,0.687c0,0.48,0.322,0.688,0.828,0.688h1.714
			c1.083,0,2.482,0,3.773-0.688c1.456-0.77,2.367-2.127,2.367-3.923c0-1.729-0.853-3.137-2.351-3.923
			c-1.283-0.687-2.707-0.687-3.79-0.687h-4.579c-0.512,0-0.77,0.241-0.77,0.77v15.619c0,0.497,0.258,0.819,0.737,0.819
			c0.464,0,0.72-0.322,0.72-0.819V7.957H58.431z"/>
	</g>
	<path id="path21" fill="#1A1A1A" stroke="#1A1A1A" stroke-width="0.9203" stroke-miterlimit="10" d="M27.732,15.125
		c0,0.48,0.322,0.687,0.819,0.687h3.65c0.496,0,0.818-0.207,0.818-0.687s-0.322-0.687-0.818-0.687h-3.65
		C28.054,14.438,27.732,14.645,27.732,15.125"/>
</g>
<path id="path19" fill="#1A1A1A" stroke="#1A1A1A" stroke-width="0.9203" stroke-miterlimit="10" d="M64.393,29.907l2.42,3.157
	c0.167,0.218,0.285,0.335,0.478,0.335c0.252,0,0.327-0.185,0.327-0.368v-3.703c0-0.192-0.109-0.327-0.293-0.327
	c-0.186,0-0.293,0.135-0.293,0.327l0.008,3.107l-2.421-3.157c-0.134-0.176-0.234-0.277-0.443-0.277c-0.285,0-0.368,0.193-0.368,0.37
	v3.701c0,0.193,0.1,0.327,0.293,0.327c0.184,0,0.293-0.134,0.293-0.327V29.907L64.393,29.907z M56.344,31.196
	c0,0.954-0.654,1.734-1.634,1.734c-0.972,0-1.633-0.78-1.633-1.734c0-0.955,0.653-1.733,1.633-1.733S56.344,30.241,56.344,31.196
	 M52.448,31.196c0,1.281,0.955,2.287,2.262,2.287s2.261-0.997,2.261-2.287c0-1.289-0.954-2.287-2.261-2.287
	C53.403,28.918,52.448,29.915,52.448,31.196 M45.321,33.399c0.185,0,0.293-0.134,0.293-0.327v-3.744
	c0-0.192-0.108-0.327-0.293-0.327c-0.193,0-0.302,0.135-0.302,0.327v3.744C45.02,33.266,45.128,33.399,45.321,33.399 M36.059,33.072
	c0,0.193,0.108,0.327,0.301,0.327c0.184,0,0.293-0.134,0.293-0.327v-3.501h1.373c0.185,0,0.303-0.092,0.303-0.276
	c0-0.176-0.118-0.275-0.303-0.275h-3.333c-0.185,0-0.302,0.1-0.302,0.275c0,0.177,0.117,0.276,0.302,0.276h1.374v3.501H36.059z
	 M27.564,31.196c0,0.954-0.653,1.734-1.633,1.734c-0.972,0-1.634-0.78-1.634-1.734c0-0.955,0.654-1.733,1.634-1.733
	C26.911,29.463,27.564,30.241,27.564,31.196 M23.67,31.196c0,1.281,0.954,2.287,2.261,2.287c1.306,0,2.261-0.997,2.261-2.287
	c0-1.289-0.955-2.287-2.261-2.287C24.625,28.918,23.67,29.915,23.67,31.196 M14.524,31.933l-1.349-2.479
	c-0.167-0.31-0.301-0.461-0.578-0.461c-0.334,0-0.401,0.227-0.401,0.402v3.677c0,0.193,0.1,0.327,0.293,0.327
	c0.185,0,0.293-0.134,0.293-0.327l-0.009-3.207l1.382,2.596c0.092,0.176,0.185,0.285,0.352,0.285s0.268-0.109,0.36-0.285
	l1.382-2.596l-0.009,3.207c0,0.193,0.109,0.327,0.293,0.327c0.192,0,0.293-0.134,0.293-0.327v-3.677
	c0-0.176-0.067-0.402-0.403-0.402c-0.276,0-0.393,0.151-0.561,0.461L14.524,31.933L14.524,31.933z"/>
<g>
</g>
<g>
</g>
<g>
</g>
<g>
</g>
<g>
</g>
<g>
</g>
</svg>
