<?xml version="1.0" encoding="utf-8"?>
<!-- Generator: Adobe Illustrator 16.0.3, SVG Export Plug-In . SVG Version: 6.00 Build 0)  -->
<!DOCTYPE svg PUBLIC "-//W3C//DTD SVG 1.1//EN" "http://www.w3.org/Graphics/SVG/1.1/DTD/svg11.dtd">
<svg version="1.1"
	 id="Layer_1" xmlns:svg="http://www.w3.org/2000/svg" xmlns:rdf="http://www.w3.org/1999/02/22-rdf-syntax-ns#" xmlns:cc="http://creativecommons.org/ns#" xmlns:dc="http://purl.org/dc/elements/1.1/"
	 xmlns="http://www.w3.org/2000/svg" xmlns:xlink="http://www.w3.org/1999/xlink" x="0px" y="0px" width="679.7px" height="325.8px"
	 viewBox="0 0 679.7 325.8" enable-background="new 0 0 679.7 325.8" xml:space="preserve">
<g id="g5">
	<g id="g7">
		<path id="path9" fill="#9E383F" d="M17.6,191.4V10c0-6-3.1-10-8.9-10C3.1,0,0,4,0,10v188.701C0,205.1,3.1,208,9.3,208h100.8
			c6,0,10-2.5,10-8.299c0-5.801-3.9-8.301-10-8.301H17.6z"/>
		<path id="path11" fill="#9E383F" d="M171.3,17.4h99.8c6,0,10-2.5,10-8.3c0-5.8-3.9-8.3-10-8.3H163c-6.2,0-9.3,2.9-9.3,9.3v188.5
			c0,6.399,3.1,9.3,9.3,9.3h108.1c6,0,10-2.5,10-8.3s-3.9-8.3-10-8.3h-99.8V17.4L171.3,17.4z"/>
		<path id="path13" fill="#9E383F" d="M406.901,25.5L483.1,201.3c1.699,4.1,4.6,7.5,8.5,7.5c4.6,0,12.199-4.801,8.301-13.5l-82-187
			C416.2,4.8,413.799,0,407.1,0c-6.6,0-9.1,4.8-10.801,8.3l-82,187c-3.9,8.699,3.7,13.5,8.3,13.5c3.9,0,6.8-3.301,8.5-7.5
			L406.901,25.5z"/>
		<path id="path15" fill="#9E383F" d="M380,130.3c0,5.8,3.899,8.3,9.899,8.3h34.399c6,0,10-2.5,10-8.3c0-5.8-3.898-8.3-10-8.3H389.9
			C383.9,122,380,124.5,380,130.3"/>
		<path id="path17" fill="#9E383F" d="M558.5,17.4h48.1c13.9,0,26.1,0.2,36.4,6c11.6,6.4,18.6,18.9,18.6,33.1
			c0,14.3-7,26.7-18.6,33.1c-10.301,5.6-22.6,6-36.4,6h-21.699c-6,0-10,2.5-10,8.3c0,5.8,3.898,8.3,10,8.3H605.6
			c13.1,0,30,0,45.6-8.3c17.6-9.3,28.6-25.7,28.6-47.4c0-20.9-10.299-37.9-28.398-47.4c-15.5-8.3-32.701-8.3-45.801-8.3h-55.301
			C544.1,0.8,541,3.7,541,10.1v188.7c0,6,3.1,9.9,8.9,9.9c5.6,0,8.699-3.9,8.699-9.9V17.4H558.5z"/>
	</g>
	<path id="path19" fill="#9E383F" d="M623.1,283.1l28.9,37.7c2,2.6,3.4,4,5.699,4c3,0,3.9-2.201,3.9-4.4v-44.199
		c0-2.301-1.301-3.9-3.5-3.9s-3.5,1.6-3.5,3.9l0.1,37.1l-28.9-37.7c-1.6-2.101-2.799-3.3-5.299-3.3c-3.4,0-4.4,2.3-4.4,4.4V320.9
		c0,2.301,1.199,3.9,3.5,3.9c2.199,0,3.5-1.6,3.5-3.9V283.1L623.1,283.1z M527,298.5c0,11.4-7.801,20.701-19.5,20.701
		c-11.6,0-19.5-9.301-19.5-20.701c0-11.399,7.799-20.699,19.5-20.699C519.2,277.8,527,287.1,527,298.5 M480.5,298.5
		c0,15.301,11.4,27.301,27,27.301s27-11.9,27-27.301c0-15.399-11.4-27.299-27-27.299C491.901,271.3,480.5,283.201,480.5,298.5
		 M395.4,324.8c2.2,0,3.501-1.6,3.501-3.9v-44.699c0-2.301-1.301-3.9-3.501-3.9c-2.3,0-3.601,1.6-3.601,3.9V320.9
		C391.799,323.201,393.1,324.8,395.4,324.8 M284.8,320.9c0,2.301,1.3,3.9,3.6,3.9c2.2,0,3.5-1.6,3.5-3.9v-41.8h16.4
		c2.2,0,3.6-1.101,3.6-3.3c0-2.1-1.4-3.301-3.6-3.301h-39.8c-2.2,0-3.6,1.201-3.6,3.301s1.4,3.3,3.6,3.3h16.4v41.8H284.8z
		 M183.4,298.5c0,11.4-7.8,20.701-19.5,20.701c-11.6,0-19.5-9.301-19.5-20.701c0-11.399,7.8-20.699,19.5-20.699
		C175.6,277.8,183.4,287.1,183.4,298.5 M136.9,298.5c0,15.301,11.4,27.301,27,27.301s27-11.9,27-27.301
		c0-15.399-11.4-27.299-27-27.299C148.3,271.3,136.9,283.201,136.9,298.5 M27.7,307.3l-16.1-29.6c-2-3.701-3.6-5.5-6.9-5.5
		c-4,0-4.8,2.699-4.8,4.799v43.9c0,2.301,1.2,3.9,3.5,3.9c2.2,0,3.5-1.6,3.5-3.9l-0.1-38.3l16.5,30.999c1.1,2.102,2.2,3.4,4.2,3.4
		s3.2-1.299,4.3-3.4L48.3,282.6l-0.1,38.3c0,2.301,1.3,3.9,3.5,3.9c2.3,0,3.5-1.6,3.5-3.9V277c0-2.1-0.8-4.799-4.8-4.799
		c-3.3,0-4.7,1.799-6.7,5.5L27.7,307.3L27.7,307.3z"/>
	<path id="path21" fill="#9E383F" d="M187.6,104c0,5.8,3.9,8.3,9.9,8.3h44.1c6,0,9.9-2.5,9.9-8.3s-3.9-8.3-9.9-8.3h-44.1
		C191.5,95.7,187.6,98.2,187.6,104"/>
</g>
</svg>
